<svg version="1.1" id="Layer_1" xmlns="http://www.w3.org/2000/svg" xmlns:xlink="http://www.w3.org/1999/xlink" x="0px" y="0px"
	 width="100%" viewBox="0 0 816 816" enable-background="new 0 0 816 816" xml:space="preserve">
<path fill="#000000" opacity="1.000000" stroke="none" 
	d="
M495.841003,655.164673 
	C485.771118,655.931030 476.148712,656.649353 466.528473,657.395264 
	C462.481934,657.708923 459.305328,659.840454 456.551636,662.577820 
	C450.625885,668.468445 446.077637,669.530151 439.215881,665.434570 
	C434.269012,662.481812 429.394989,660.979431 423.598969,661.901367 
	C419.846924,662.498169 415.893372,662.464172 412.168213,661.442383 
	C405.011292,659.479309 398.324951,661.181885 391.277954,662.680786 
	C370.089874,667.187500 348.928284,667.208496 328.536682,658.609924 
	C320.840515,655.364624 314.402405,650.436584 311.381439,642.135803 
	C310.737793,640.367310 309.305603,639.656006 307.568756,639.316467 
	C275.147491,632.977356 265.617249,598.262390 271.092194,575.086914 
	C273.929840,563.075073 279.136505,552.524536 289.166748,544.873474 
	C290.914917,543.539978 291.482025,542.402771 290.346649,540.312988 
	C280.196136,521.628601 283.372620,502.979828 290.822327,484.462158 
	C294.708069,474.803375 300.460236,466.228668 307.125000,458.257507 
	C308.157196,457.022949 309.126404,455.735748 310.397644,454.127686 
	C299.655273,449.167358 289.630249,444.004761 280.807709,436.790558 
	C264.716675,423.632935 255.667236,407.313629 257.619049,385.956848 
	C257.946899,382.369110 257.144165,379.335968 255.095032,376.143646 
	C244.405304,359.490112 246.593430,337.016388 264.476105,326.091095 
	C266.516266,324.844635 267.035492,323.133209 266.791779,321.018463 
	C266.144775,315.403809 265.494232,309.788513 264.745544,304.186768 
	C259.964752,268.415710 270.574432,237.278809 293.979828,210.482529 
	C322.392975,177.952942 358.666382,159.797806 401.368591,154.711029 
	C434.121552,150.809418 464.002441,160.485977 492.111450,176.248947 
	C518.422852,191.003876 539.439941,211.296661 552.885254,238.658752 
	C563.711121,260.689911 566.930237,283.915924 562.649963,308.141632 
	C562.245483,310.430908 562.292480,312.806274 561.813354,315.074799 
	C560.635559,320.651001 561.309143,324.676300 566.736816,328.573944 
	C581.322144,339.047791 583.623657,360.067535 572.700684,376.554352 
	C570.934448,379.220276 570.086975,381.758575 570.447632,384.921234 
	C572.782898,405.400848 564.648254,421.596130 549.602417,434.778656 
	C545.860535,438.057159 541.749634,440.972229 537.553284,443.655457 
	C534.362976,445.695465 534.246704,447.311310 536.464050,450.334198 
	C547.963928,466.012329 555.205627,483.595703 559.292542,502.558990 
	C563.076111,520.115540 560.275757,536.652100 551.641418,552.223877 
	C549.678406,555.764038 549.747314,558.073853 552.481079,561.398560 
	C568.526672,580.912292 568.391602,609.507874 552.708496,625.996643 
	C537.243958,642.255615 518.936951,652.855774 495.841003,655.164673 
M303.745270,213.245407 
	C300.895203,216.725266 297.892700,220.092285 295.219788,223.703262 
	C277.805969,247.228729 270.150269,273.392700 274.148132,302.644623 
	C275.794403,314.690430 277.711914,326.733063 275.350250,338.898041 
	C273.225891,349.841003 270.819092,360.731506 268.844055,371.700470 
	C266.440552,385.048920 264.631348,398.431976 271.296173,411.259827 
	C276.933838,422.110748 285.667969,429.936218 295.886505,436.230286 
	C316.272156,448.786835 339.027100,454.387756 362.246338,458.577667 
	C365.144989,459.100739 367.197388,457.968842 369.341217,455.989594 
	C374.720245,451.023468 381.079742,450.837372 385.953918,455.450439 
	C390.407349,459.665344 396.022980,461.602814 401.629913,461.805603 
	C436.968597,463.083771 471.883423,460.287689 505.580505,448.594788 
	C521.780151,442.973480 536.962769,435.411163 548.831482,422.572052 
	C558.913574,411.665619 562.974121,398.788788 561.145081,383.941101 
	C560.002075,374.663055 558.197937,365.534393 556.140198,356.440430 
	C552.444763,340.108765 550.432861,323.859924 553.411804,306.985687 
	C557.580750,283.371399 554.427612,260.515961 542.825012,239.181610 
	C526.062622,208.359741 500.067993,188.143890 468.228058,174.905106 
	C448.012909,166.499817 426.917511,161.272537 404.917267,163.624374 
	C365.573914,167.830200 331.833679,184.142700 303.745270,213.245407 
M382.994843,616.925293 
	C375.566223,618.964661 368.221069,619.021790 360.350861,616.685730 
	C362.283447,614.138611 364.274231,614.993591 365.956146,614.732544 
	C374.118958,613.465332 381.424072,610.421143 386.626495,603.782898 
	C392.118774,596.774780 389.906769,588.911621 381.692627,585.797607 
	C367.587555,580.450439 354.271027,573.692566 342.313751,564.415955 
	C339.730957,562.412231 337.071442,561.709167 333.609833,561.763672 
	C323.046509,561.929688 312.590607,560.732971 303.460876,554.653870 
	C296.704041,550.154846 296.200684,550.083252 290.525177,555.908386 
	C288.308411,558.183655 286.436859,560.706482 284.947693,563.544312 
	C279.822968,573.309937 278.482025,583.748230 279.337555,594.569458 
	C280.795593,613.011292 292.598297,627.251770 309.499420,630.431335 
	C317.409515,631.919495 325.012726,634.229797 332.494995,637.055420 
	C342.129181,640.693604 351.910614,642.871582 362.305908,641.106018 
	C364.936493,640.659241 367.788330,640.631104 370.390594,642.539124 
	C353.917725,651.078369 338.113525,646.488342 321.460297,640.704224 
	C323.960876,646.631714 328.141296,648.809265 332.358948,650.393066 
	C354.051666,658.539001 375.974426,658.612061 397.883667,651.294861 
	C404.847260,648.969055 410.430420,644.493774 414.714203,638.474487 
	C420.505951,630.336304 421.851685,619.316772 432.243927,613.615234 
	C423.878418,607.685181 416.258453,610.261963 408.581726,612.515137 
	C408.525940,607.446899 413.073639,606.298828 415.454987,603.126099 
	C411.716461,599.309509 407.332550,597.418945 402.445251,595.873169 
	C399.249542,606.034546 393.292450,612.994934 382.994843,616.925293 
M430.774475,597.184814 
	C433.698578,596.539978 436.606049,595.804260 439.549774,595.266846 
	C449.587952,593.434265 457.523163,586.676514 467.032990,583.560547 
	C469.196381,582.851746 470.327881,580.522522 470.396057,577.587036 
	C465.707733,576.903809 461.289459,577.354858 456.863190,577.724731 
	C441.530243,579.006226 427.031250,575.976990 413.395996,568.955933 
	C407.450592,565.894470 406.301025,560.971436 409.759583,555.185181 
	C412.669342,550.317078 416.452057,546.386414 422.019135,544.759583 
	C425.248962,543.815796 426.531799,541.845459 426.905487,538.680298 
	C427.406952,534.433167 428.756195,529.658386 432.285278,527.775269 
	C442.046936,522.566345 451.118927,515.765137 461.485504,512.100708 
	C471.035492,508.724945 480.166565,513.017151 488.257935,518.425598 
	C491.283813,520.448120 493.546326,520.943970 496.722656,518.729187 
	C500.061493,516.401184 499.993958,513.762268 498.967499,510.472687 
	C497.529816,505.865326 496.208038,501.220245 494.927307,496.566376 
	C494.558929,495.227692 493.476105,493.775635 495.578552,491.914673 
	C503.147339,495.093384 505.346466,502.717133 508.885071,509.385254 
	C513.451416,508.276215 517.720215,505.621338 522.514771,507.764496 
	C523.768982,508.325073 525.134888,508.788239 525.277832,510.313263 
	C525.440430,512.048218 523.834717,512.404663 522.657288,512.872131 
	C517.016296,515.111572 512.192261,518.679932 507.269653,522.107971 
	C505.437317,523.383972 504.333435,524.527344 505.688507,526.978821 
	C510.759979,536.153442 512.567749,546.330627 514.654846,556.451904 
	C515.948730,562.726624 516.453186,569.240662 519.045776,575.154968 
	C521.835999,575.408203 523.470947,573.743713 524.978394,572.360779 
	C540.423584,558.190735 550.117859,540.870972 551.518860,519.796570 
	C552.453247,505.741333 547.962952,492.474823 542.494446,479.690002 
	C538.565796,470.505249 534.322083,461.436310 527.406067,453.950348 
	C525.489014,451.875366 523.604919,451.104492 520.833252,452.346985 
	C506.324066,458.851044 491.061890,462.958832 475.540009,466.135071 
	C472.555389,466.745789 471.031158,468.315674 469.803925,470.965515 
	C466.292816,478.546844 461.931976,485.699890 456.466888,491.991974 
	C446.838654,503.077209 436.138062,513.102173 424.515778,522.096497 
	C422.328278,523.789368 420.862610,525.705627 419.802765,528.300659 
	C409.632782,553.202698 382.966522,560.383911 365.509430,557.726685 
	C360.974030,557.036377 357.112091,558.434082 352.161469,560.012268 
	C358.615967,565.493103 365.148163,569.447449 372.266449,572.051147 
	C385.113373,576.750427 396.576080,584.446594 409.593079,588.751709 
	C413.356537,589.996338 416.997345,591.980957 419.872314,594.805115 
	C422.841614,597.721985 426.147675,598.278625 430.774475,597.184814 
M360.333984,478.538300 
	C360.436340,483.690186 361.779022,488.786621 361.076813,493.970520 
	C360.708038,496.693176 360.615601,499.631287 357.178802,500.888031 
	C352.781860,496.199402 356.685822,489.728271 353.228577,483.893890 
	C348.061279,493.521332 352.150482,503.843170 348.921021,512.539978 
	C346.285187,512.495972 345.559662,511.265961 345.036438,510.092377 
	C342.433258,504.253632 340.739838,498.142670 341.311737,491.718994 
	C341.765991,486.616974 341.904388,480.887939 346.739624,477.806610 
	C351.027039,475.074432 352.117065,471.470947 352.196014,466.754517 
	C351.147766,466.315277 350.137543,465.686188 349.045044,465.466919 
	C340.714935,463.795074 332.505615,461.627899 324.450928,458.974670 
	C321.012817,457.842133 318.875885,458.727966 316.625427,461.281586 
	C304.684235,474.830963 296.376923,490.117981 293.862823,508.203033 
	C291.747681,523.418091 294.967682,537.334717 307.814911,546.505859 
	C320.684479,555.692810 335.477051,553.309937 350.468048,550.341431 
	C348.108276,544.461670 346.213959,539.160645 350.098206,534.000488 
	C353.374603,534.707520 353.439148,537.237000 354.212555,539.110596 
	C356.539764,544.748291 360.847748,547.849304 366.679779,548.634521 
	C378.396973,550.212036 389.631012,547.972473 398.866730,540.744629 
	C414.765686,528.302124 417.740631,513.741638 406.477692,496.657074 
	C405.877014,495.745911 405.284729,494.543518 403.834320,495.088104 
	C399.902008,501.983887 408.085022,512.114685 398.485413,517.728394 
	C396.628326,516.406860 396.762909,515.175171 396.716034,514.036560 
	C396.359894,505.388428 395.990814,496.740540 395.698608,488.090118 
	C395.528992,483.070221 394.659973,478.158905 393.366394,473.341125 
	C392.849243,471.415039 392.518768,468.925140 389.540894,468.774872 
	C387.434418,470.841614 388.096344,473.451080 388.180176,475.850708 
	C388.324890,479.994080 388.864227,484.127930 388.899689,488.268646 
	C388.913086,489.830231 388.274384,491.773254 386.228760,492.005981 
	C384.135651,492.244080 383.309326,490.503265 382.931976,488.889740 
	C382.367218,486.474640 381.941101,483.988251 381.826904,481.515015 
	C381.611847,476.859924 381.866394,472.177124 381.515594,467.536804 
	C381.338348,465.192535 381.107605,461.857574 377.857544,461.870483 
	C374.313416,461.884521 374.127258,465.055481 374.146210,467.819763 
	C374.186157,473.648926 374.297394,479.477600 374.340729,485.306732 
	C374.355499,487.301392 374.379272,489.309509 373.536316,491.200378 
	C372.984802,492.437469 372.453003,493.798706 370.860870,493.792816 
	C369.180115,493.786621 368.853546,492.330109 368.458984,491.046173 
	C367.561249,488.124542 367.831787,485.106293 367.678925,482.119659 
	C367.492615,478.479156 368.199799,474.785004 367.046600,471.201355 
	C366.624146,469.888489 366.074280,468.580658 364.479980,468.522034 
	C362.963226,468.466278 362.075012,469.561096 361.518677,470.829681 
	C360.568207,472.996918 360.184174,475.285339 360.333984,478.538300 
M509.986145,584.390259 
	C513.988281,586.709106 517.422058,589.544373 519.061584,594.298950 
	C506.280731,588.385620 493.367645,584.347473 478.727142,586.784180 
	C481.531921,591.601379 486.635406,594.952698 485.682617,601.100891 
	C483.555817,601.145630 483.014984,599.702637 482.098541,598.832703 
	C475.563263,592.629211 469.021393,591.711609 461.285370,596.072937 
	C455.895203,599.111694 450.250061,601.499390 444.343018,603.341858 
	C442.205048,604.008728 439.729675,604.032959 438.060608,605.906738 
	C441.055542,610.189453 445.591461,611.459778 450.567505,609.483337 
	C460.674042,605.469177 471.821716,610.493530 471.939362,620.025635 
	C472.023193,626.820435 473.342865,633.798645 471.031525,640.658203 
	C469.265198,645.900085 471.557129,648.094971 477.052551,647.434509 
	C480.020538,647.077759 483.012451,646.783875 485.998199,646.732727 
	C508.550598,646.346130 527.324585,637.983276 543.726562,622.257446 
	C558.741638,607.861450 557.118835,583.783997 547.373535,569.473450 
	C545.109802,566.149353 543.187744,565.787537 540.584351,569.225708 
	C535.810181,575.530823 530.122681,580.888733 522.820068,584.213867 
	C517.645264,586.570068 512.865906,584.492737 510.534882,579.302002 
	C509.216309,576.365845 510.176788,571.977600 506.695709,570.597412 
	C503.591888,569.366638 500.277557,571.680298 497.011444,572.186218 
	C495.863739,572.363953 494.710205,572.570190 493.597076,572.893372 
	C489.938782,573.955505 485.880585,573.764587 481.653381,576.415955 
	C491.950409,577.626587 501.147980,579.086060 509.986145,584.390259 
M502.927887,545.490845 
	C501.629974,541.546265 500.442780,537.560364 498.994110,533.671936 
	C498.068512,531.187378 496.428741,529.637451 493.689697,531.690613 
	C491.074432,533.650940 489.311798,532.748108 487.448547,530.398376 
	C484.045380,526.106628 479.476013,523.353210 474.268433,521.784302 
	C468.870270,520.157959 463.469757,519.566833 458.548706,523.257996 
	C457.497009,524.046875 456.321289,524.990845 456.840851,526.546448 
	C457.298767,527.917358 458.468292,528.715698 459.897156,528.757080 
	C462.553436,528.834045 465.226471,528.903137 467.870819,528.696777 
	C472.855103,528.307678 475.860718,530.634460 477.015472,535.284668 
	C478.179962,539.974121 476.853607,543.842834 472.477448,546.360352 
	C467.661255,549.130981 462.425568,549.795837 457.024841,549.178528 
	C449.267609,548.291870 446.113403,543.675964 447.847443,536.027100 
	C448.701233,532.260986 447.174683,530.605713 443.495148,531.626587 
	C439.285950,532.794373 436.583191,535.419312 436.233795,540.065002 
	C435.821899,545.541687 437.723419,550.156189 441.136108,554.308960 
	C442.025940,555.391785 443.643494,556.050903 443.496399,558.077393 
	C438.797333,559.024536 435.236359,556.122925 431.383636,554.500061 
	C426.809631,552.573303 423.070038,553.188660 419.708130,556.962280 
	C417.386566,559.568176 417.721924,561.219116 420.874969,562.568054 
	C426.559082,564.999817 432.386932,566.964478 438.538757,567.712646 
	C460.214722,570.349060 481.261963,566.364014 502.226593,561.551270 
	C505.367950,560.830017 506.147217,558.940002 505.397736,555.997009 
	C504.577209,552.775208 503.897888,549.517456 502.927887,545.490845 
M449.659332,485.165222 
	C453.331299,480.231201 457.603180,475.660950 459.927307,469.506927 
	C454.662628,468.647644 450.252167,469.903687 445.821686,470.331512 
	C433.530975,471.518341 421.219604,471.313477 408.908051,471.432007 
	C406.992950,471.450439 404.754272,470.948425 403.614288,473.237549 
	C402.728790,475.015686 404.899048,483.181702 406.670929,484.122589 
	C411.512970,486.693878 414.182770,491.035553 416.602875,495.652802 
	C419.136047,500.485870 421.083923,505.563110 422.840118,511.316376 
	C432.915375,503.587830 441.317108,494.918457 449.659332,485.165222 
M426.973541,635.356384 
	C424.193420,641.474609 419.828979,646.587158 414.798889,652.819641 
	C426.326935,652.426575 436.575684,651.551025 445.330292,658.262512 
	C446.647430,659.272217 448.306946,658.243347 449.114044,656.827576 
	C450.139923,655.027954 448.887543,654.103638 447.436676,653.368652 
	C446.588501,652.939026 445.459656,652.677917 445.994293,651.233459 
	C447.848022,650.105713 449.468353,651.088745 451.118378,651.850342 
	C452.705688,652.583069 454.425781,653.200317 455.442535,651.199097 
	C456.420288,649.274719 455.191711,648.093689 453.516327,647.301880 
	C452.768463,646.948425 451.982422,646.631165 452.305450,645.538208 
	C453.252441,644.667358 454.192230,645.281738 455.100311,645.578918 
	C457.274750,646.290344 460.102081,647.865723 461.044830,644.731445 
	C462.017426,641.497986 458.628937,641.160278 456.434662,640.109924 
	C454.354797,639.114319 451.455719,640.353210 449.771362,637.855408 
	C452.062592,635.889648 454.118774,637.716736 456.159180,637.660095 
	C458.573120,637.593018 461.836853,638.553040 462.440155,635.292664 
	C463.102814,631.711365 459.559143,631.933472 457.296600,631.380371 
	C455.190918,630.865662 452.774475,631.062195 451.723785,628.437927 
	C453.525879,627.408325 455.223511,627.793579 456.856354,627.739685 
	C459.029114,627.668030 461.444794,627.917847 462.335083,625.341125 
	C463.097778,623.133606 463.471649,620.682617 461.586853,618.775024 
	C459.743134,616.909119 457.238556,616.799316 455.063812,617.743652 
	C452.412598,618.894897 449.703857,620.142456 446.932190,619.505981 
	C441.794769,618.326355 438.160461,620.552551 434.259735,623.410645 
	C430.267578,626.335754 429.431152,630.826477 426.973541,635.356384 
M259.316681,363.208862 
	C259.578522,363.573151 259.835266,363.941589 260.116394,364.290375 
	C260.131409,364.309021 260.442749,364.182556 260.463562,364.089478 
	C261.903351,357.653442 263.399750,351.228577 264.711273,344.766205 
	C265.131439,342.696106 266.307007,340.541382 264.958313,337.821991 
	C257.912628,345.276550 257.058929,353.573273 259.316681,363.208862 
M566.759338,361.380615 
	C567.401794,362.256073 566.766113,363.700134 568.027466,364.350922 
	C572.018799,354.691833 569.667053,343.089386 561.992859,337.850555 
	C563.597900,345.910126 565.068237,353.293152 566.759338,361.380615 
z"/>
<path fill="#000000" opacity="1.000000" stroke="none" 
	d="
M335.900330,327.041016 
	C337.452850,321.337585 339.186890,316.148438 342.529083,311.643250 
	C349.526886,302.210297 359.759216,300.200531 369.802063,306.362396 
	C377.218262,310.912659 381.582092,317.450195 382.525208,326.173218 
	C382.795929,328.677124 382.424957,330.927094 379.738525,331.918091 
	C377.059296,332.906464 375.878723,330.923309 374.562286,329.139343 
	C373.184845,327.272766 371.821594,325.340302 370.149933,323.755402 
	C361.002197,315.082581 349.470581,316.983704 343.590973,328.045746 
	C343.356842,328.486206 343.202484,328.971527 342.947540,329.398041 
	C341.643066,331.580597 340.978699,335.078888 337.464539,333.944641 
	C334.211853,332.894806 335.688416,329.798370 335.900330,327.041016 
z"/>
<path fill="#000000" opacity="1.000000" stroke="none" 
	d="
M449.986328,314.134033 
	C453.138306,309.640839 456.980865,306.559418 461.695099,304.571625 
	C469.926453,301.100861 478.540863,303.033752 484.243927,309.893311 
	C488.929138,315.528625 491.253082,322.273376 492.627441,329.381317 
	C493.008209,331.350616 492.717285,333.190918 490.688080,333.970978 
	C488.556732,334.790314 487.261353,333.302063 486.286011,331.653534 
	C485.525940,330.368866 484.956512,328.972778 484.222900,327.670959 
	C478.155060,316.902710 466.953217,315.199921 458.011444,323.781006 
	C456.109589,325.606140 454.568451,327.816254 452.927734,329.901428 
	C451.728668,331.425232 450.449371,332.712189 448.323334,331.895752 
	C446.360565,331.141998 445.785858,329.515198 445.666565,327.519470 
	C445.373352,322.613892 447.187439,318.414337 449.986328,314.134033 
z"/>
<path fill="#000000" opacity="1.000000" stroke="none" 
	d="
M393.410889,404.684387 
	C396.053802,401.773071 398.310425,402.253357 400.289124,404.839355 
	C407.115417,413.760590 421.920410,413.301453 427.948578,404.479553 
	C428.986267,402.960999 430.381531,402.189728 432.219543,402.701904 
	C434.228851,403.261749 435.135742,404.725647 435.281250,406.760895 
	C435.438385,408.958679 435.054840,411.054932 434.301422,413.110138 
	C431.346954,421.169556 422.604889,426.493134 413.188416,425.950867 
	C402.603119,425.341248 395.119690,419.538239 393.147064,410.445709 
	C392.753021,408.629578 392.575470,406.840454 393.410889,404.684387 
z"/>
</svg>